<?xml version="1.0"?><!DOCTYPE svg  PUBLIC '-//W3C//DTD SVG 1.1//EN'  'http://www.w3.org/Graphics/SVG/1.1/DTD/svg11.dtd'><svg height="512px" style="enable-background:new 0 0 512 512;" version="1.1" viewBox="0 0 512 512" width="512px" xml:space="preserve" xmlns="http://www.w3.org/2000/svg" xmlns:xlink="http://www.w3.org/1999/xlink"><g id="_x32_36-odnoklassniki"><g><path d="M359.338,325.984c-24.609,15.628-58.469,21.824-80.834,24.16l18.771,18.502l68.529,68.529    c25.059,25.688-15.719,65.835-41.045,41.046c-17.154-17.425-42.305-42.573-68.53-68.799l-68.529,68.709    c-25.328,24.7-66.104-15.809-40.776-41.047c17.424-17.425,42.303-42.572,68.529-68.528l18.502-18.502    c-22.094-2.336-56.493-8.174-81.373-24.158c-29.28-18.863-42.123-29.91-30.807-52.993c6.646-13.113,24.878-24.16,49.039-5.119    c0,0,32.603,25.956,85.235,25.956c52.631,0,85.234-25.956,85.234-25.956c24.16-18.952,42.303-7.994,49.039,5.119    C401.463,295.986,388.619,307.033,359.338,325.984L359.338,325.984z M139.47,142.491c0-64.397,52.362-116.49,116.491-116.49    s116.49,52.093,116.49,116.49c0,64.129-52.361,116.221-116.49,116.221S139.47,206.62,139.47,142.491L139.47,142.491z     M198.749,142.491c0,31.525,25.687,57.212,57.212,57.212c31.523,0,57.213-25.687,57.213-57.212    c0-31.795-25.689-57.481-57.213-57.481C224.435,85.01,198.749,110.696,198.749,142.491z" style="fill:#FF7E00;"/></g></g><g id="Layer_1"/></svg>