<?xml version="1.0"?><!DOCTYPE svg  PUBLIC '-//W3C//DTD SVG 1.1//EN'  'http://www.w3.org/Graphics/SVG/1.1/DTD/svg11.dtd'><svg height="512px" style="enable-background:new 0 0 512 512;" version="1.1" viewBox="0 0 512 512" width="512px" xml:space="preserve" xmlns="http://www.w3.org/2000/svg" xmlns:xlink="http://www.w3.org/1999/xlink"><g id="_x32_23-myspace"><g><path d="M385.023,227.248c-28.102,0-53.443,11.702-71.682,30.418v-1.668    c0-47.553-38.592-86.249-86.015-86.249c-27.894,0-52.471,13.597-68.21,34.296c-12.645-20.49-35.069-34.296-60.813-34.296    c-39.512,0-71.681,32.257-71.681,71.876v100.627h114.689v57.499h143.356v86.248h200.709V327.874    C485.377,272.385,440.359,227.248,385.023,227.248z" style="fill:#003398;"/><ellipse cx="385.021" cy="112.25" rx="86.018" ry="86.249" style="fill:#003398;"/><ellipse cx="227.327" cy="97.877" rx="57.341" ry="57.498" style="fill:#003398;"/><ellipse cx="98.305" cy="112.25" rx="43.007" ry="43.125" style="fill:#003398;"/></g></g><g id="Layer_1"/></svg>