<?xml version="1.0"?><!DOCTYPE svg  PUBLIC '-//W3C//DTD SVG 1.1//EN'  'http://www.w3.org/Graphics/SVG/1.1/DTD/svg11.dtd'><svg height="512px" style="enable-background:new 0 0 512 512;" version="1.1" viewBox="0 0 512 512" width="512px" xml:space="preserve" xmlns="http://www.w3.org/2000/svg" xmlns:xlink="http://www.w3.org/1999/xlink"><g id="_x32_22-msn"><g><g id="_x36_5-msn_2_"><g><g><g><path d="M198.664,26.001c0,0,160.566,18.863,82.084,289.021c-12.383,42.72-53.038,170.978-140.153,170.978        c-87.07-2.704-47.784-93.987-47.784-93.987s21.045-56.492,68.089-76.588c30.885,13.484,71.342,30.415,70.424,29.528        c0.918,0.887-113.72-62.448-113.72-175.202C117.606,76.747,140.596,26.001,198.664,26.001L198.664,26.001z"/><path d="M418.72,155.692c21.477,6.381,9.835,91.887-78.019,186.56c-4.156,54.506-35.032,135.348-75.237,128.165        c-41.394-13.173,17.061-127.194,30.543-157.955C309.479,281.703,371.467,141.638,418.72,155.692L418.72,155.692z"/></g></g></g></g></g></g><g id="Layer_1"/></svg>