<?xml version="1.0"?><!DOCTYPE svg  PUBLIC '-//W3C//DTD SVG 1.1//EN'  'http://www.w3.org/Graphics/SVG/1.1/DTD/svg11.dtd'><svg height="512px" style="enable-background:new 0 0 512 512;" version="1.1" viewBox="0 0 512 512" width="512px" xml:space="preserve" xmlns="http://www.w3.org/2000/svg" xmlns:xlink="http://www.w3.org/1999/xlink"><g id="_x32_53-phabricator"><g><g><path d="M325.549,261.641l-0.092-12.057c0,0,20.123-18.36,19.566-19.658l-8.809-18.546     c-0.557-1.299-27.355-0.465-27.355-0.465l-8.719-8.624c0,0,0.186-26.428-1.111-26.984l-18.641-8.532     c-1.297-0.556-19.195,19.474-19.195,19.474l-12.148-0.185c0,0-19.009-19.845-20.307-19.289l-18.547,7.697     c-1.299,0.464,0.185,26.799,0.185,26.799l-8.439,8.439c0,0-27.077-0.835-27.542,0.371l-7.51,18.36     c-0.556,1.299,19.474,19.474,19.474,19.474l0.092,11.963c0,0-20.123,18.362-19.566,19.659l8.81,18.546     c0.556,1.3,27.355,0.464,27.355,0.464l8.716,8.626c0,0-0.184,29.488,1.113,29.951l18.64,7.696     c1.297,0.558,19.195-21.792,19.195-21.792l12.146,0.187c0,0,19.012,22.069,20.217,21.605l18.547-6.956     c1.297-0.554-0.186-29.766-0.186-29.766l8.438-8.438c0,0,27.078,0.835,27.543-0.464l7.512-18.36     C345.58,279.816,325.549,261.641,325.549,261.641L325.549,261.641z M283.912,253.571c0.648,15.858-11.869,29.304-27.911,30.046     c-16.043,0.74-29.767-11.591-30.417-27.449c-0.648-15.856,11.87-29.303,27.913-29.952     C269.539,225.474,283.264,237.808,283.912,253.571z M470.488,218.426l-89.949-89.949l-0.092,0.093     c-69.643-67.974-181.2-67.51-250.191,1.484c-47.201,47.293-25.781,25.872-88.746,88.372c-20.679,20.68-20.679,54.435,0,75.114     c64.82,64.355,43.028,42.657,90.322,89.951l0.092-0.093c69.642,67.971,181.198,67.601,250.192-1.486     c47.293-47.197,25.871-25.872,88.371-88.372C491.168,272.86,491.168,239.105,470.488,218.426z M156.221,355.949     c-55.269-55.176-55.269-144.662,0-199.839c55.176-55.268,144.662-55.175,199.93,0c55.176,55.177,55.268,144.663,0,199.93     C300.883,411.217,211.489,411.124,156.221,355.949z" style="fill:#0A1F4D;"/></g></g></g><g id="Layer_1"/></svg>