<?xml version="1.0"?><!DOCTYPE svg  PUBLIC '-//W3C//DTD SVG 1.1//EN'  'http://www.w3.org/Graphics/SVG/1.1/DTD/svg11.dtd'><svg height="512px" style="enable-background:new 0 0 512 512;" version="1.1" viewBox="0 0 512 512" width="512px" xml:space="preserve" xmlns="http://www.w3.org/2000/svg" xmlns:xlink="http://www.w3.org/1999/xlink"><g id="_x32_89-schlix"><g><polygon points="385.888,140.59 330.237,93.256 405.603,53.211 485.999,98.594   " style="fill:#00ACDE;"/><polygon points="223.143,104.036 270.068,75.081 305.696,110.608 248.813,140.385   " style="fill:#00ACDE;"/><polygon points="156.3,110.813 189.054,88.122 206.716,117.281 169.032,140.385   " style="fill:#00ACDE;"/><polygon points="132.375,201.376 123.34,165.643 153.732,146.854 167.185,183.099   " style="fill:#BD188E;"/><polygon points="110.606,115.435 135.147,96.849 144.286,121.491 116.871,140.282   " style="fill:#00ACDE;"/><polygon points="86.582,190.697 82.884,161.536 105.782,145.621 112.045,175.09   " style="fill:#BD188E;"/><polygon points="55.16,207.742 76.52,194.599 79.907,228.894 56.393,241.215   " style="fill:#E92D2E;"/><polygon points="27.438,253.845 47.152,243.37 47.563,282.594 26.001,291.63   " style="fill:#D0E735;"/><polygon points="88.121,314.732 59.063,323.255 57.42,275.199 83.192,264.215   " style="fill:#D0E735;"/><polygon points="127.652,248.915 95.719,262.266 90.38,220.371 118.513,205.585   " style="fill:#E92D2E;"/><polygon points="152.501,365.765 109.786,371.82 101.469,306.621 137.611,295.531   " style="fill:#D0E735;"/><polygon points="181.765,222.116 203.531,280.745 156.094,294.711 142.027,239.162   " style="fill:#E92D2E;"/><polygon points="269.758,458.789 196.961,455.4 172.009,357.036 228.687,348.207 269.758,458.789   " style="fill:#D0E735;"/><polygon points="182.586,171.599 225.915,148.599 254.665,195.728 202.505,217.6   " style="fill:#BD188E;"/><polygon points="224.684,269.039 287.624,249.841 341.837,338.759 259.901,350.363   " style="fill:#E92D2E;"/><polygon points="277.459,181.148 346.563,151.575 413.817,218.728 322.843,245.63 277.459,181.148   " style="fill:#BD188E;"/></g></g><g id="Layer_1"/></svg>