<?xml version="1.0"?><!DOCTYPE svg  PUBLIC '-//W3C//DTD SVG 1.1//EN'  'http://www.w3.org/Graphics/SVG/1.1/DTD/svg11.dtd'><svg height="512px" style="enable-background:new 0 0 512 512;" version="1.1" viewBox="0 0 512 512" width="512px" xml:space="preserve" xmlns="http://www.w3.org/2000/svg" xmlns:xlink="http://www.w3.org/1999/xlink"><g id="_x32_68-quicktime"><g><g><g id="_x34_4-quicktime_9_"><g><g><path d="M373.91,185.882l-93.781,92.667c-6.85,6.322-15.354,9.625-24.126,9.625        c-8.777,0-17.829-3.303-24.408-10.176c-13.44-13.477-13.167-35.199,0.276-48.671l93.23-91.84        C345.122,149.04,362.121,165.814,373.91,185.882L373.91,185.882z" style="fill:#1879BF;"/><path d="M475.377,256c0-121.532-98.173-219.972-219.374-219.972        c-121.207,0-219.38,98.44-219.38,219.972c0,121.534,98.173,219.973,219.38,219.973c45.787,0,88.021-14.029,123.396-37.949        l37.843,37.949h58.133v-58.295l-37.843-37.943C461.389,344.258,475.377,301.918,475.377,256L475.377,256z M407.753,150.058        c-1.454,2.391-33.843,35.825-33.843,35.825c12.069,20.346,19.201,44.544,19.201,70.117        c0,75.893-61.425,137.485-137.108,137.485c-75.687,0-137.113-61.592-137.113-137.485c0-75.892,61.428-137.482,137.113-137.482        c25.224,0,48.808,6.872,69.099,18.97c0,0,34.25-32.361,36.47-33.731C379.563,116.344,395.217,132.021,407.753,150.058        L407.753,150.058z" style="fill:#1879BF;"/></g></g></g></g></g></g><g id="Layer_1"/></svg>