<?xml version="1.0" encoding="utf-8"?>
<!-- Generator: Adobe Illustrator 27.5.0, SVG Export Plug-In . SVG Version: 6.00 Build 0)  -->
<svg version="1.1" xmlns="http://www.w3.org/2000/svg" xmlns:xlink="http://www.w3.org/1999/xlink" x="0px" y="0px"
	 viewBox="0 0 500 500" style="enable-background:new 0 0 500 500;" xml:space="preserve">
<g id="BACKGROUND">
	<linearGradient id="SVGID_1_" gradientUnits="userSpaceOnUse" x1="250" y1="154.0295" x2="250" y2="490.075">
		<stop  offset="0" style="stop-color:#FFF9F2"/>
		<stop  offset="0.3652" style="stop-color:#FAF3EC"/>
		<stop  offset="0.8707" style="stop-color:#EBE3DA"/>
		<stop  offset="1" style="stop-color:#E6DED4"/>
	</linearGradient>
	<polygon style="fill:url(#SVGID_1_);" points="0,0 500,0 500,500 0,500 	"/>
</g>
<g id="OBJECTS">
	
		<text transform="matrix(1 0 0 1 79.1782 369.8255)" style="fill:#2D3640; font-family:'Poppins-Black'; font-size:43.2838px; letter-spacing:8;">KINGCOBRA</text>
	
		<text transform="matrix(1 0 0 1 90.3735 396.0916)" style="fill:#2D3640; font-family:'Poppins-Regular'; font-size:19.3219px; letter-spacing:3;">YOUR TAGLINE GOES HERE</text>
	<g>
		
			<linearGradient id="SVGID_00000134935017836146805340000014200982168323525282_" gradientUnits="userSpaceOnUse" x1="354.6178" y1="139.4628" x2="265.3956" y2="223.533">
			<stop  offset="0" style="stop-color:#3F99AB"/>
			<stop  offset="0.1018" style="stop-color:#378198"/>
			<stop  offset="0.2928" style="stop-color:#2B5A79"/>
			<stop  offset="0.4816" style="stop-color:#213B61"/>
			<stop  offset="0.665" style="stop-color:#1A2550"/>
			<stop  offset="0.8406" style="stop-color:#151846"/>
			<stop  offset="1" style="stop-color:#141342"/>
		</linearGradient>
		<path style="fill:url(#SVGID_00000134935017836146805340000014200982168323525282_);" d="M297.419,230.755
			c-27.047,34.071-28.45,69.903-28.45,69.903s-0.005,0-0.005-0.005c-0.128-0.324-10.003-24.925,17.214-75.518
			c27.403-50.934,23.186-66.042,5.621-65.861c-7.7,0.074-16.283,6.445-23.664,15.714c-0.409-0.617-0.872-1.234-1.377-1.851
			c2.744-5.371,2.414-9.29,0.218-11.582c-2.489-2.595-4.573-8.195-7.466-10.689c24.558-35.257,79.996-49.291,87.792-13.901
			C356.431,178.417,324.465,196.683,297.419,230.755z"/>
		
			<linearGradient id="SVGID_00000094603011403408609650000016293882130346729889_" gradientUnits="userSpaceOnUse" x1="306.7136" y1="231.8065" x2="243.1341" y2="227.24">
			<stop  offset="0.0989" style="stop-color:#3F99AB"/>
			<stop  offset="0.1906" style="stop-color:#378198"/>
			<stop  offset="0.3627" style="stop-color:#2B5A79"/>
			<stop  offset="0.5328" style="stop-color:#213B61"/>
			<stop  offset="0.6981" style="stop-color:#1A2550"/>
			<stop  offset="0.8564" style="stop-color:#151846"/>
			<stop  offset="1" style="stop-color:#141342"/>
		</linearGradient>
		<path style="fill:url(#SVGID_00000094603011403408609650000016293882130346729889_);" d="M286.177,225.134
			c-27.217,50.594-17.341,75.194-17.214,75.518c-0.324-0.351-14.964-16.416-2.457-56.108c12.646-40.134,12.997-44.468,4.568-45.404
			c-3.249-0.362-7.126,3.036-10.657,8.354c0.271-1.329,0.431-2.723,0.473-4.137c0.234-8.083,9.014-14.172,9.248-22.835
			c0.048-1.734-0.728-3.622-2.005-5.536c7.381-9.269,15.964-15.64,23.664-15.714C309.363,159.092,313.58,174.199,286.177,225.134z"
			/>
		
			<linearGradient id="SVGID_00000103977270942723826510000007046701584081527720_" gradientUnits="userSpaceOnUse" x1="275.6422" y1="250.5979" x2="239.1101" y2="246.0314">
			<stop  offset="0" style="stop-color:#3F99AB"/>
			<stop  offset="0.1018" style="stop-color:#378198"/>
			<stop  offset="0.2928" style="stop-color:#2B5A79"/>
			<stop  offset="0.4816" style="stop-color:#213B61"/>
			<stop  offset="0.665" style="stop-color:#1A2550"/>
			<stop  offset="0.8406" style="stop-color:#151846"/>
			<stop  offset="1" style="stop-color:#141342"/>
		</linearGradient>
		<path style="fill:url(#SVGID_00000103977270942723826510000007046701584081527720_);" d="M268.963,300.652
			c-12.114-7.557-11.412-43.383-9.833-66.563c0.596-8.711-0.548-14.693-2.202-18.767c1.681-2.026,2.877-4.775,3.489-7.828
			c3.531-5.318,7.408-8.716,10.657-8.354c8.429,0.936,8.078,5.27-4.568,45.404C253.999,284.236,268.639,300.301,268.963,300.652z"/>
		
			<linearGradient id="SVGID_00000075858753932602728010000010041317305765142188_" gradientUnits="userSpaceOnUse" x1="249.9115" y1="306.107" x2="251.3877" y2="215.2322">
			<stop  offset="0" style="stop-color:#FFE7C8"/>
			<stop  offset="0.5552" style="stop-color:#FFC57A"/>
			<stop  offset="1" style="stop-color:#824B35"/>
		</linearGradient>
		<path style="fill:url(#SVGID_00000075858753932602728010000010041317305765142188_);" d="M268.969,300.657
			c0,0-6.498,5.445-18.969,5.445c-12.47,0-18.969-5.445-18.969-5.445s0.005,0,0.005-0.005c12.114-7.557,11.412-43.383,9.833-66.563
			c-0.596-8.711,0.548-14.693,2.202-18.767c0.468,0.558,0.968,1.064,1.505,1.5c1.537,1.255,3.361,1.989,5.424,1.989
			c2.063,0,3.887-0.734,5.424-1.989c0.537-0.436,1.037-0.941,1.505-1.5c1.654,4.074,2.797,10.056,2.202,18.767
			c-1.579,23.18-2.281,59.007,9.833,66.563C268.963,300.657,268.969,300.657,268.969,300.657z"/>
		
			<linearGradient id="SVGID_00000105395491904037726940000013515884742964975251_" gradientUnits="userSpaceOnUse" x1="270.6416" y1="199.2858" x2="250.2681" y2="193.7826">
			<stop  offset="0" style="stop-color:#3F99AB"/>
			<stop  offset="0.1018" style="stop-color:#378198"/>
			<stop  offset="0.2928" style="stop-color:#2B5A79"/>
			<stop  offset="0.4816" style="stop-color:#213B61"/>
			<stop  offset="0.665" style="stop-color:#1A2550"/>
			<stop  offset="0.8406" style="stop-color:#151846"/>
			<stop  offset="1" style="stop-color:#141342"/>
		</linearGradient>
		<path style="fill:url(#SVGID_00000105395491904037726940000013515884742964975251_);" d="M270.139,180.522
			c-0.234,8.663-9.014,14.752-9.248,22.835c-0.043,1.415-0.202,2.808-0.473,4.137c-0.612,3.052-1.808,5.802-3.489,7.828
			c-0.468,0.558-0.968,1.064-1.505,1.5c-1.537,1.255-3.361,1.989-5.424,1.989v-20.958c3.084,0,5.137-1.659,6.732-4.127
			c0.059-0.085,0.112-0.17,0.165-0.26c5.499-1.213,6.53-6.977,6.392-11.721c-0.026-0.909-0.096-1.787-0.186-2.585
			c0.399-0.755,0.83-1.478,1.298-2.148c0.952-1.367,1.734-2.659,2.356-3.877c0.505,0.617,0.968,1.234,1.377,1.851
			C269.41,176.901,270.186,178.789,270.139,180.522z"/>
		
			<linearGradient id="SVGID_00000150084500489729619490000005901644433101672364_" gradientUnits="userSpaceOnUse" x1="268.8658" y1="181.3121" x2="242.4036" y2="168.0809">
			<stop  offset="0" style="stop-color:#3F99AB"/>
			<stop  offset="0.1018" style="stop-color:#378198"/>
			<stop  offset="0.2928" style="stop-color:#2B5A79"/>
			<stop  offset="0.4816" style="stop-color:#213B61"/>
			<stop  offset="0.665" style="stop-color:#1A2550"/>
			<stop  offset="0.8406" style="stop-color:#151846"/>
			<stop  offset="1" style="stop-color:#141342"/>
		</linearGradient>
		<path style="fill:url(#SVGID_00000150084500489729619490000005901644433101672364_);" d="M266.757,173.136
			c-0.622,1.218-1.404,2.51-2.356,3.877c-0.468,0.67-0.899,1.393-1.298,2.148c-1.579,2.989-2.712,6.525-3.988,9.716
			c-0.675,1.67-1.383,3.239-2.218,4.589c-0.053,0.09-0.106,0.175-0.165,0.26c-1.595,2.467-3.648,4.127-6.732,4.127V154.88
			c0,0,5.504-6.674,8.78-4.568c0.25,0.16,0.489,0.346,0.729,0.553c2.893,2.494,4.977,8.094,7.466,10.689
			C269.171,163.846,269.5,167.765,266.757,173.136z"/>
		
			<linearGradient id="SVGID_00000047754138204649801320000007768657310456514191_" gradientUnits="userSpaceOnUse" x1="-1836.454" y1="139.4628" x2="-1925.6761" y2="223.533" gradientTransform="matrix(-1 0 0 1 -1691.0718 0)">
			<stop  offset="0" style="stop-color:#78C6D6"/>
			<stop  offset="0.0253" style="stop-color:#74BED1"/>
			<stop  offset="0.198" style="stop-color:#5B8EAF"/>
			<stop  offset="0.3699" style="stop-color:#476793"/>
			<stop  offset="0.5382" style="stop-color:#37487D"/>
			<stop  offset="0.7016" style="stop-color:#2B326E"/>
			<stop  offset="0.8581" style="stop-color:#242564"/>
			<stop  offset="1" style="stop-color:#222061"/>
		</linearGradient>
		<path style="fill:url(#SVGID_00000047754138204649801320000007768657310456514191_);" d="M202.581,230.755
			c27.047,34.071,28.45,69.903,28.45,69.903s0.005,0,0.005-0.005c0.128-0.324,10.003-24.925-17.214-75.518
			c-27.403-50.934-23.186-66.042-5.621-65.861c7.7,0.074,16.283,6.445,23.664,15.714c0.41-0.617,0.872-1.234,1.377-1.851
			c-2.744-5.371-2.414-9.29-0.218-11.582c2.489-2.595,4.573-8.195,7.466-10.689c-24.558-35.257-79.996-49.291-87.792-13.901
			C143.569,178.417,175.534,196.683,202.581,230.755z"/>
		
			<linearGradient id="SVGID_00000022543388960236014480000004060796183508732820_" gradientUnits="userSpaceOnUse" x1="-1884.3582" y1="231.8065" x2="-1947.9376" y2="227.24" gradientTransform="matrix(-1 0 0 1 -1691.0718 0)">
			<stop  offset="0" style="stop-color:#78C6D6"/>
			<stop  offset="0.0253" style="stop-color:#74BED1"/>
			<stop  offset="0.198" style="stop-color:#5B8EAF"/>
			<stop  offset="0.3699" style="stop-color:#476793"/>
			<stop  offset="0.5382" style="stop-color:#37487D"/>
			<stop  offset="0.7016" style="stop-color:#2B326E"/>
			<stop  offset="0.8581" style="stop-color:#242564"/>
			<stop  offset="1" style="stop-color:#222061"/>
		</linearGradient>
		<path style="fill:url(#SVGID_00000022543388960236014480000004060796183508732820_);" d="M213.823,225.134
			c27.217,50.594,17.341,75.194,17.214,75.518c0.324-0.351,14.964-16.416,2.457-56.108c-12.646-40.134-12.997-44.468-4.568-45.404
			c3.249-0.362,7.126,3.036,10.657,8.354c-0.271-1.329-0.431-2.723-0.473-4.137c-0.234-8.083-9.014-14.172-9.248-22.835
			c-0.048-1.734,0.729-3.622,2.005-5.536c-7.381-9.269-15.964-15.64-23.664-15.714C190.637,159.092,186.42,174.199,213.823,225.134z
			"/>
		
			<linearGradient id="SVGID_00000114793724427710832890000002410613181888685443_" gradientUnits="userSpaceOnUse" x1="-1915.4296" y1="250.5979" x2="-1951.9617" y2="246.0314" gradientTransform="matrix(-1 0 0 1 -1691.0718 0)">
			<stop  offset="0" style="stop-color:#78C6D6"/>
			<stop  offset="0.0253" style="stop-color:#74BED1"/>
			<stop  offset="0.198" style="stop-color:#5B8EAF"/>
			<stop  offset="0.3699" style="stop-color:#476793"/>
			<stop  offset="0.5382" style="stop-color:#37487D"/>
			<stop  offset="0.7016" style="stop-color:#2B326E"/>
			<stop  offset="0.8581" style="stop-color:#242564"/>
			<stop  offset="1" style="stop-color:#222061"/>
		</linearGradient>
		<path style="fill:url(#SVGID_00000114793724427710832890000002410613181888685443_);" d="M231.037,300.652
			c12.114-7.557,11.412-43.383,9.833-66.563c-0.596-8.711,0.548-14.693,2.202-18.767c-1.68-2.026-2.877-4.775-3.488-7.828
			c-3.531-5.318-7.408-8.716-10.657-8.354c-8.429,0.936-8.078,5.27,4.568,45.404C246.001,284.236,231.361,300.301,231.037,300.652z"
			/>
		
			<linearGradient id="SVGID_00000152981330136072758140000015113768677808534461_" gradientUnits="userSpaceOnUse" x1="-1920.4302" y1="199.2858" x2="-1940.8037" y2="193.7826" gradientTransform="matrix(-1 0 0 1 -1691.0718 0)">
			<stop  offset="0" style="stop-color:#78C6D6"/>
			<stop  offset="0.0253" style="stop-color:#74BED1"/>
			<stop  offset="0.198" style="stop-color:#5B8EAF"/>
			<stop  offset="0.3699" style="stop-color:#476793"/>
			<stop  offset="0.5382" style="stop-color:#37487D"/>
			<stop  offset="0.7016" style="stop-color:#2B326E"/>
			<stop  offset="0.8581" style="stop-color:#242564"/>
			<stop  offset="1" style="stop-color:#222061"/>
		</linearGradient>
		<path style="fill:url(#SVGID_00000152981330136072758140000015113768677808534461_);" d="M229.861,180.522
			c0.234,8.663,9.014,14.752,9.248,22.835c0.043,1.415,0.202,2.808,0.473,4.137c0.611,3.052,1.808,5.802,3.488,7.828
			c0.468,0.558,0.968,1.064,1.505,1.5c1.537,1.255,3.361,1.989,5.424,1.989v-20.958c-3.084,0-5.137-1.659-6.732-4.127
			c-0.059-0.085-0.112-0.17-0.165-0.26c-5.499-1.213-6.53-6.977-6.392-11.721c0.027-0.909,0.096-1.787,0.186-2.585
			c-0.399-0.755-0.83-1.478-1.298-2.148c-0.952-1.367-1.734-2.659-2.356-3.877c-0.505,0.617-0.968,1.234-1.377,1.851
			C230.59,176.901,229.813,178.789,229.861,180.522z"/>
		
			<linearGradient id="SVGID_00000121240130965786851030000002290981789780417203_" gradientUnits="userSpaceOnUse" x1="-1922.2059" y1="181.3121" x2="-1948.6682" y2="168.0809" gradientTransform="matrix(-1 0 0 1 -1691.0718 0)">
			<stop  offset="0" style="stop-color:#78C6D6"/>
			<stop  offset="0.0253" style="stop-color:#74BED1"/>
			<stop  offset="0.198" style="stop-color:#5B8EAF"/>
			<stop  offset="0.3699" style="stop-color:#476793"/>
			<stop  offset="0.5382" style="stop-color:#37487D"/>
			<stop  offset="0.7016" style="stop-color:#2B326E"/>
			<stop  offset="0.8581" style="stop-color:#242564"/>
			<stop  offset="1" style="stop-color:#222061"/>
		</linearGradient>
		<path style="fill:url(#SVGID_00000121240130965786851030000002290981789780417203_);" d="M233.243,173.136
			c0.622,1.218,1.404,2.51,2.356,3.877c0.468,0.67,0.899,1.393,1.298,2.148c1.579,2.989,2.712,6.525,3.988,9.716
			c0.675,1.67,1.383,3.239,2.218,4.589c0.053,0.09,0.106,0.175,0.165,0.26c1.595,2.467,3.648,4.127,6.732,4.127V154.88
			c0,0-5.504-6.674-8.78-4.568c-0.25,0.16-0.489,0.346-0.729,0.553c-2.893,2.494-4.977,8.094-7.466,10.689
			C230.829,163.846,230.499,167.765,233.243,173.136z"/>
	</g>
</g>
</svg>
